<svg width="235" height="110" viewBox="0 0 235 110" fill="none" xmlns="http://www.w3.org/2000/svg">
<g filter="url(#filter0_d)">
<mask id="path-1-inside-1" fill="white">
<path fill-rule="evenodd" clip-rule="evenodd" d="M127.457 15.6978L118 0L108.543 15.6978H26C17.1634 15.6978 10 22.8612 10 31.6978V74.0001C10 82.8367 17.1634 90.0001 26 90.0001H209C217.837 90.0001 225 82.8367 225 74.0001V31.6978C225 22.8612 217.837 15.6978 209 15.6978H127.457Z"/>
</mask>
<path fill-rule="evenodd" clip-rule="evenodd" d="M127.457 15.6978L118 0L108.543 15.6978H26C17.1634 15.6978 10 22.8612 10 31.6978V74.0001C10 82.8367 17.1634 90.0001 26 90.0001H209C217.837 90.0001 225 82.8367 225 74.0001V31.6978C225 22.8612 217.837 15.6978 209 15.6978H127.457Z" fill="white"/>
<path d="M118 0L119.713 -1.03208L118 -3.87567L116.287 -1.03208L118 0ZM127.457 15.6978L125.744 16.7299L126.327 17.6978H127.457V15.6978ZM108.543 15.6978V17.6978H109.673L110.256 16.7299L108.543 15.6978ZM116.287 1.03208L125.744 16.7299L129.17 14.6657L119.713 -1.03208L116.287 1.03208ZM110.256 16.7299L119.713 1.03208L116.287 -1.03208L106.83 14.6657L110.256 16.7299ZM26 17.6978H108.543V13.6978H26V17.6978ZM12 31.6978C12 23.9658 18.268 17.6978 26 17.6978V13.6978C16.0589 13.6978 8 21.7567 8 31.6978H12ZM12 74.0001V31.6978H8V74.0001H12ZM26 88.0001C18.268 88.0001 12 81.7321 12 74.0001H8C8 83.9412 16.0589 92.0001 26 92.0001V88.0001ZM209 88.0001H26V92.0001H209V88.0001ZM223 74.0001C223 81.7321 216.732 88.0001 209 88.0001V92.0001C218.941 92.0001 227 83.9412 227 74.0001H223ZM223 31.6978V74.0001H227V31.6978H223ZM209 17.6978C216.732 17.6978 223 23.9658 223 31.6978H227C227 21.7567 218.941 13.6978 209 13.6978V17.6978ZM127.457 17.6978H209V13.6978H127.457V17.6978Z" fill="black" fill-opacity="0.1" mask="url(#path-1-inside-1)"/>
</g>
<defs>
<filter id="filter0_d" x="0" y="0" width="235" height="110" filterUnits="userSpaceOnUse" color-interpolation-filters="sRGB">
<feFlood flood-opacity="0" result="BackgroundImageFix"/>
<feColorMatrix in="SourceAlpha" type="matrix" values="0 0 0 0 0 0 0 0 0 0 0 0 0 0 0 0 0 0 127 0"/>
<feOffset dy="10"/>
<feGaussianBlur stdDeviation="5"/>
<feColorMatrix type="matrix" values="0 0 0 0 0 0 0 0 0 0 0 0 0 0 0 0 0 0 0.1 0"/>
<feBlend mode="normal" in2="BackgroundImageFix" result="effect1_dropShadow"/>
<feBlend mode="normal" in="SourceGraphic" in2="effect1_dropShadow" result="shape"/>
</filter>
</defs>
</svg>
