<svg width="96" height="96" viewBox="0 0 96 96" fill="none" xmlns="http://www.w3.org/2000/svg">
<path fill-rule="evenodd" clip-rule="evenodd" d="M38.126 72.252C56.9733 72.252 72.252 56.9733 72.252 38.126C72.252 19.2787 56.9733 4 38.126 4C19.2787 4 4 19.2787 4 38.126C4 56.9733 19.2787 72.252 38.126 72.252ZM68.9706 60.5404C73.5503 54.2491 76.252 46.5031 76.252 38.126C76.252 17.0696 59.1824 0 38.126 0C17.0696 0 0 17.0696 0 38.126C0 59.1824 17.0696 76.252 38.126 76.252C46.5031 76.252 54.2491 73.5503 60.5404 68.9706C60.7788 70.0483 61.3172 71.0729 62.1555 71.9112L84.4005 94.1562C86.7436 96.4993 90.5426 96.4993 92.8858 94.1562L94.1562 92.8857C96.4993 90.5426 96.4993 86.7436 94.1562 84.4005L71.9113 62.1555C71.0729 61.3172 70.0483 60.7788 68.9706 60.5404ZM62.5998 38.126C62.5998 51.6425 51.6425 62.5998 38.126 62.5998C24.6095 62.5998 13.6521 51.6425 13.6521 38.126C13.6521 24.6095 24.6095 13.6521 38.126 13.6521C51.6425 13.6521 62.5998 24.6095 62.5998 38.126ZM66.5998 38.126C66.5998 53.8517 53.8517 66.5998 38.126 66.5998C22.4003 66.5998 9.65215 53.8517 9.65215 38.126C9.65215 22.4003 22.4003 9.65215 38.126 9.65215C53.8517 9.65215 66.5998 22.4003 66.5998 38.126ZM35.5329 40.7898C35.0842 41.885 34.8599 43.3564 34.8599 45.2039H39.9273L40.0065 43.9965C40.1516 42.7032 40.7257 41.5749 41.7286 40.6116L43.3319 39.0874C44.5856 37.8734 45.4631 36.7715 45.9646 35.7818C46.466 34.7788 46.7168 33.7165 46.7168 32.5949C46.7168 30.1271 45.9448 28.2203 44.4008 26.8743C42.8569 25.515 40.6861 24.8354 37.8885 24.8354C35.1172 24.8354 32.9266 25.548 31.3167 26.9732C29.7199 28.3984 28.9084 30.3713 28.882 32.8918H34.6224C34.6488 31.8361 34.9523 31.0113 35.5329 30.4175C36.1268 29.8104 36.9119 29.5069 37.8885 29.5069C39.9471 29.5069 40.9764 30.622 40.9764 32.8522C40.9764 33.5912 40.7784 34.2972 40.3826 34.9702C39.9867 35.63 39.1883 36.4944 37.9874 37.5633C36.7998 38.619 35.9816 39.6945 35.5329 40.7898ZM35.1766 49.1034C34.5828 49.6709 34.2859 50.3967 34.2859 51.2808C34.2859 52.1518 34.5762 52.871 35.1568 53.4384C35.7507 54.0058 36.5292 54.2896 37.4926 54.2896C38.4559 54.2896 39.2279 54.0058 39.8085 53.4384C40.4024 52.871 40.6993 52.1518 40.6993 51.2808C40.6993 50.3967 40.3958 49.6709 39.7887 49.1034C39.1949 48.5228 38.4295 48.2325 37.4926 48.2325C36.5556 48.2325 35.7836 48.5228 35.1766 49.1034ZM64.984 66.2544L66.2544 64.984C67.0354 64.2029 68.3018 64.2029 69.0828 64.984L91.3278 87.2289C92.1088 88.0099 92.1088 89.2763 91.3278 90.0573L90.0573 91.3278C89.2763 92.1088 88.0099 92.1088 87.2289 91.3278L64.984 69.0828C64.2029 68.3018 64.2029 67.0354 64.984 66.2544Z" fill="black"/>
</svg>
