<svg width="96" height="96" viewBox="0 0 96 96" fill="none" xmlns="http://www.w3.org/2000/svg">
<g clip-path="url(#clip0)">
<path d="M74 96H38C36.896 96 36 95.104 36 94V80.7L26.344 83.632C25.708 83.868 24.884 84 24 84C19.588 84 16 80.412 16 76V64H8C5.756 64 4 62.244 4 60C4 59.248 4.22 58.508 4.628 57.856L13.972 43.024C15.3 40.92 16 38.496 16 36.012C16 16.152 32.148 0 52 0C71.852 0 88 16.152 88 36C88 43.432 85.74 50.584 81.456 56.68C77.888 61.756 76 67.712 76 73.9V94C76 95.104 75.104 96 74 96ZM40 92H72V73.9C72 66.884 74.136 60.136 78.184 54.38C81.988 48.964 84 42.608 84 36C84 18.356 69.644 4 52 4C34.356 4 20 18.356 20 36C20 39.252 19.084 42.416 17.356 45.156L8.012 59.988L18 60C19.104 60 20 60.896 20 62V76C20 78.208 21.792 80 24 80C24.416 80 24.784 79.944 25.084 79.836L37.42 76.084C38.028 75.904 38.684 76.016 39.192 76.392C39.7 76.768 40 77.368 40 78V92Z" fill="black"/>
<path d="M58 63.9999H50C48.076 63.9999 46 62.5239 46 59.2799V53.9999C46 51.6559 44.988 49.5119 43.296 48.2679C38.616 44.8239 35.888 39.3159 36.004 33.5399C36.188 24.0079 44.14 16.1399 53.736 15.9999C58.5961 15.8399 63.2121 17.7719 66.6761 21.1839C70.1081 24.5719 72.0001 29.0839 72.0001 33.8879C72.0001 39.5759 69.3681 44.7999 64.7761 48.2159C63.0401 49.5079 62.0001 51.6799 62.0001 54.0279V59.9999C62.0001 62.2079 60.208 63.9999 58 63.9999ZM54 19.9999C53.928 19.9999 53.86 19.9999 53.788 19.9999C46.456 20.1039 40.14 26.3399 40.004 33.6159C39.916 38.0959 42.032 42.3679 45.668 45.0439C48.38 47.0439 50 50.3879 50 53.9999V59.2799C50 59.8759 50.144 60.0719 50.144 60.0719L58 59.9999V54.0279C58 50.4239 59.64 47.0479 62.392 45.0079C65.9521 42.3519 68.0001 38.2999 68.0001 33.8879C68.0001 30.1599 66.5321 26.6639 63.8681 24.0359C61.2241 21.4279 57.7281 19.9999 54 19.9999Z" fill="black"/>
<path d="M60 56H48C46.896 56 46 55.104 46 54C46 52.896 46.896 52 48 52H60C61.104 52 62 52.896 62 54C62 55.104 61.104 56 60 56Z" fill="black"/>
</g>
<defs>
<clipPath id="clip0">
<rect width="96" height="96" fill="white"/>
</clipPath>
</defs>
</svg>
