<svg width="93" height="96" viewBox="0 0 93 96" fill="none" xmlns="http://www.w3.org/2000/svg">
<path fill-rule="evenodd" clip-rule="evenodd" d="M45.8947 12C48.1039 12 49.8947 10.2091 49.8947 8C49.8947 5.79086 48.1039 4 45.8947 4C43.6856 4 41.8947 5.79086 41.8947 8C41.8947 10.2091 43.6856 12 45.8947 12ZM48 15.7201C51.3969 14.7959 53.8947 11.6897 53.8947 8C53.8947 3.58172 50.313 0 45.8947 0C41.4765 0 37.8947 3.58172 37.8947 8C37.8947 11.7655 40.4963 14.9234 44 15.7743V30.9033H48V15.7201ZM46.3158 57.4737C51.548 57.4737 55.7895 53.2322 55.7895 48C55.7895 42.7678 51.548 38.5263 46.3158 38.5263C41.0836 38.5263 36.8421 42.7678 36.8421 48C36.8421 53.2322 41.0836 57.4737 46.3158 57.4737ZM46.3158 61.4737C53.7571 61.4737 59.7895 55.4413 59.7895 48C59.7895 40.5587 53.7571 34.5263 46.3158 34.5263C38.8745 34.5263 32.8421 40.5587 32.8421 48C32.8421 55.4413 38.8745 61.4737 46.3158 61.4737ZM88.6316 29.8947C88.6316 32.1039 86.8407 33.8947 84.6316 33.8947C82.4224 33.8947 80.6316 32.1039 80.6316 29.8947C80.6316 27.6856 82.4224 25.8947 84.6316 25.8947C86.8407 25.8947 88.6316 27.6856 88.6316 29.8947ZM92.6316 29.8947C92.6316 34.313 89.0499 37.8947 84.6316 37.8947C82.2233 37.8947 80.0635 36.8306 78.5969 35.1468L78.7616 35.4321L64.3963 43.7258L62.3963 40.2617L76.7616 31.968L77.0604 32.4856C76.7824 31.673 76.6316 30.8015 76.6316 29.8947C76.6316 25.4765 80.2133 21.8947 84.6316 21.8947C89.0499 21.8947 92.6316 25.4765 92.6316 29.8947ZM8 33.8947C10.2091 33.8947 12 32.1039 12 29.8947C12 27.6856 10.2091 25.8947 8 25.8947C5.79086 25.8947 4 27.6856 4 29.8947C4 32.1039 5.79086 33.8947 8 33.8947ZM15.7274 31.9729C15.9052 31.3102 16 30.6135 16 29.8947C16 25.4765 12.4183 21.8947 8 21.8947C3.58172 21.8947 0 25.4765 0 29.8947C0 34.313 3.58172 37.8947 8 37.8947C10.2591 37.8947 12.2995 36.9583 13.7542 35.4525L26.681 42.9158L28.681 39.4517L15.7274 31.9729ZM12 71.1579C12 73.367 10.2091 75.1579 8 75.1579C5.79086 75.1579 4 73.367 4 71.1579C4 68.9488 5.79086 67.1579 8 67.1579C10.2091 67.1579 12 68.9488 12 71.1579ZM16 71.1579C16 75.5762 12.4183 79.1579 8 79.1579C3.58172 79.1579 0 75.5762 0 71.1579C0 66.7396 3.58172 63.1579 8 63.1579C9.94305 63.1579 11.7243 63.8506 13.1103 65.0026L26.681 57.1675L28.681 60.6316L15.4607 68.2644C15.809 69.1617 16 70.1375 16 71.1579ZM82.9474 73.4737C85.1565 73.4737 86.9474 71.6828 86.9474 69.4737C86.9474 67.2645 85.1565 65.4737 82.9474 65.4737C80.7382 65.4737 78.9474 67.2645 78.9474 69.4737C78.9474 71.6828 80.7382 73.4737 82.9474 73.4737ZM82.9474 77.4737C87.3656 77.4737 90.9474 73.892 90.9474 69.4737C90.9474 65.0554 87.3656 61.4737 82.9474 61.4737C80.3823 61.4737 78.0992 62.6809 76.6352 64.5581L64 57.2632L62 60.7273L75.0395 68.2556C74.9788 68.6528 74.9474 69.0596 74.9474 69.4737C74.9474 73.892 78.5291 77.4737 82.9474 77.4737ZM49.8947 88C49.8947 90.2091 48.1039 92 45.8947 92C43.6856 92 41.8947 90.2091 41.8947 88C41.8947 85.7909 43.6856 84 45.8947 84C48.1039 84 49.8947 85.7909 49.8947 88ZM53.8947 88C53.8947 92.4183 50.313 96 45.8947 96C41.4765 96 37.8947 92.4183 37.8947 88C37.8947 84.2345 40.4963 81.0766 44 80.2257V65.6842H48V80.2799C51.3969 81.2041 53.8947 84.3103 53.8947 88Z" fill="black"/>
</svg>
