<svg height="512pt" viewBox="0 0 512 511" width="512pt" xmlns="http://www.w3.org/2000/svg"><path d="m234.140625 433.625c-3.507813-55.59375-23.945313-107.824219-59.105469-151.035156-12.128906-14.90625-34.042968-18.0625-49.882812-7.1875-14.804688 10.164062-20.230469 29.4375-12.90625 45.828125l17.585937 39.339843c-28.164062-18.46875-47.257812-48.683593-51.625-82.285156l-15.382812-118.339844c-2.039063-15.664062-15.484375-27.476562-31.28125-27.476562-17.394531 0-31.542969 14.148438-31.542969 31.542969v42.457031c0 5.523438 4.476562 10 10 10s10-4.476562 10-10v-42.457031c0-6.363281 5.179688-11.542969 11.542969-11.542969 5.78125 0 10.699219 4.324219 11.445312 10.054688l15.382813 118.339843c5.527344 42.503907 31.152344 80.378907 68.546875 101.316407 6.683593 3.746093 14.660156 2.824218 20.316406-2.34375 5.65625-5.167969 7.292969-13.03125 4.164063-20.023438l-20.890626-46.742188c-3.386718-7.574218-.878906-16.484374 5.960938-21.179687 7.328125-5.023437 17.449219-3.5625 23.054688 3.324219 32.511718 39.957031 51.414062 88.253906 54.65625 139.667968l4.304687 68.214844c.335937 5.296875 4.738281 9.371094 9.972656 9.371094.210938 0 .425781-.007812.640625-.019531 5.511719-.351563 9.699219-5.101563 9.351563-10.613281zm0 0"/><path d="m10 253.464844c2.628906 0 5.210938-1.058594 7.070312-2.921875 1.859376-1.867188 2.929688-4.4375 2.929688-7.070313 0-2.636718-1.070312-5.21875-2.929688-7.078125-1.859374-1.859375-4.441406-2.929687-7.070312-2.929687s-5.210938 1.070312-7.070312 2.929687c-1.859376 1.859375-2.929688 4.441407-2.929688 7.078125 0 2.632813 1.070312 5.210938 2.929688 7.070313 1.859374 1.863281 4.441406 2.921875 7.070312 2.921875zm0 0"/><path d="m56.902344 419.890625c-23.796875-28.8125-36.902344-65.265625-36.902344-102.640625v-38.28125c0-5.523438-4.476562-10-10-10s-10 4.476562-10 10v38.28125c0 42.011719 14.730469 82.988281 41.484375 115.378906l62.9375 76.207032c1.976563 2.394531 4.835937 3.632812 7.714844 3.632812 2.242187 0 4.5-.75 6.363281-2.289062 4.257812-3.519532 4.859375-9.820313 1.34375-14.078126zm0 0"/><path d="m480.457031 132.46875c-15.796875 0-29.242187 11.8125-31.28125 27.476562l-15.382812 118.339844c-4.367188 33.601563-23.457031 63.816406-51.621094 82.285156l17.582031-39.339843c7.324219-16.390625 1.898438-35.664063-12.90625-45.828125-15.839844-10.875-37.753906-7.71875-49.882812 7.1875-35.160156 43.210937-55.597656 95.441406-59.105469 151.035156l-4.304687 68.214844c-.351563 5.511718 3.835937 10.261718 9.347656 10.609375.214844.011719.429687.019531.640625.019531 5.234375 0 9.636719-4.070312 9.972656-9.371094l4.304687-68.210937c3.246094-51.414063 22.144532-99.710938 54.660157-139.671875 5.601562-6.890625 15.726562-8.347656 23.050781-3.324219 6.839844 4.699219 9.351562 13.605469 5.964844 21.179687l-20.894532 46.742188c-3.125 6.996094-1.492187 14.855469 4.164063 20.023438 5.65625 5.167968 13.632813 6.089843 20.320313 2.347656 37.394531-20.941406 63.015624-58.816406 68.542968-101.316406l15.382813-118.34375c.746093-5.730469 5.667969-10.054688 11.445312-10.054688 6.367188 0 11.542969 5.179688 11.542969 11.542969v153.242187c0 37.371094-13.105469 73.824219-36.902344 102.640625l-62.9375 76.207031c-3.519531 4.257813-2.917968 10.5625 1.339844 14.078126 4.261719 3.519531 10.5625 2.914062 14.078125-1.34375l62.9375-76.207032c26.753906-32.390625 41.484375-73.367187 41.484375-115.378906v-153.238281c0-17.394531-14.148438-31.542969-31.542969-31.542969zm0 0"/><path d="m376 144.964844c-2.628906 0-5.210938 1.070312-7.070312 2.929687-1.859376 1.859375-2.929688 4.441407-2.929688 7.078125 0 2.632813 1.070312 5.203125 2.929688 7.070313 1.859374 1.863281 4.441406 2.921875 7.070312 2.921875s5.210938-1.058594 7.070312-2.921875c1.859376-1.867188 2.929688-4.4375 2.929688-7.070313 0-2.636718-1.070312-5.207031-2.929688-7.078125-1.859374-1.859375-4.441406-2.929687-7.070312-2.929687zm0 0"/><path d="m386 218.34375v-28.375c0-5.523438-4.476562-10-10-10s-10 4.476562-10 10v22.605469l-100 57.734375v-115.472656l100-57.734376v21.367188c0 5.523438 4.476562 10 10 10s10-4.476562 10-10v-38.6875c0-3.574219-1.90625-6.875-5-8.660156l-120-69.28125c-3.09375-1.7851565-6.90625-1.7851565-10 0l-120 69.28125c-3.09375 1.785156-5 5.085937-5 8.660156v138.5625c0 3.574219 1.90625 6.875 5 8.660156l120 69.285156c1.546875.890626 3.273438 1.339844 5 1.339844s3.453125-.449218 5-1.339844l120-69.285156c3.09375-1.785156 5-5.085937 5-8.660156zm-130-196.296875 100 57.734375-100 57.734375-100-57.734375zm-110 75.054687 100 57.734376v115.472656l-100-57.734375zm0 0"/></svg>