<svg width="88" height="96" viewBox="0 0 88 96" fill="none" xmlns="http://www.w3.org/2000/svg">
<g clip-path="url(#clip0)">
<path d="M40.0419 81.3984C39.442 70.9746 35.9469 61.1814 29.9339 53.0793C27.8597 50.2844 24.112 49.6926 21.4031 51.7317C18.8713 53.6375 17.9434 57.2512 19.1959 60.3245L22.2034 67.7007C17.3869 64.2378 14.1216 58.5725 13.3747 52.2722L10.744 30.0835C10.3953 27.1465 8.09589 24.9316 5.39437 24.9316C2.41962 24.9316 0 27.5845 0 30.8459V38.8066C0 39.8423 0.765566 40.6816 1.71016 40.6816C2.65476 40.6816 3.42033 39.8423 3.42033 38.8066V30.8459C3.42033 29.6528 4.30614 28.6816 5.39437 28.6816C6.38306 28.6816 7.22411 29.4924 7.3517 30.5669L9.98242 52.7556C10.9277 60.7251 15.31 67.8267 21.7051 71.7524C22.8481 72.4548 24.2122 72.282 25.1795 71.313C26.1468 70.344 26.4267 68.8696 25.8916 67.5586L22.319 58.7944C21.7398 57.3743 22.1687 55.7036 23.3384 54.8232C24.5916 53.8813 26.3225 54.1553 27.2811 55.4465C32.8412 62.9385 36.0738 71.9941 36.6283 81.6343L37.3644 94.4246C37.4219 95.4177 38.1748 96.1816 39.0699 96.1816C39.106 96.1816 39.1427 96.1802 39.1795 96.178C40.1221 96.1121 40.8382 95.2214 40.7787 94.188L40.0419 81.3984Z" fill="black"/>
<path d="M1.71016 47.6184C2.15975 47.6184 2.60132 47.4199 2.9193 47.0706C3.23729 46.7205 3.42033 46.2385 3.42033 45.7449C3.42033 45.2505 3.23729 44.7664 2.9193 44.4177C2.60132 44.0691 2.15975 43.8684 1.71016 43.8684C1.26058 43.8684 0.819009 44.0691 0.501025 44.4177C0.183041 44.7664 0 45.2505 0 45.7449C0 46.2385 0.183041 46.7219 0.501025 47.0706C0.819009 47.4199 1.26058 47.6184 1.71016 47.6184Z" fill="black"/>
<path d="M9.73124 78.8232C5.66158 73.4209 3.42033 66.5859 3.42033 59.5781V52.4004C3.42033 51.3647 2.65476 50.5254 1.71016 50.5254C0.765566 50.5254 0 51.3647 0 52.4004V59.5781C0 67.4553 2.51915 75.1384 7.09451 81.2117L17.8579 95.5005C18.1959 95.9495 18.6849 96.1816 19.1772 96.1816C19.5607 96.1816 19.9468 96.041 20.2655 95.7524C20.9936 95.0925 21.0965 93.9111 20.4953 93.1128L9.73124 78.8232Z" fill="black"/>
<path d="M82.166 24.9316C79.4645 24.9316 77.1651 27.1465 76.8164 30.0835L74.1857 52.2722C73.4389 58.5725 70.1742 64.2378 65.3577 67.7007L68.3645 60.3245C69.617 57.2512 68.6891 53.6375 66.1573 51.7317C63.4484 49.6926 59.7008 50.2844 57.6265 53.0793C51.6135 61.1814 48.1184 70.9746 47.5185 81.3984L46.7823 94.1887C46.7222 95.2222 47.4383 96.1128 48.3809 96.178C48.4177 96.1802 48.4544 96.1816 48.4905 96.1816C49.3857 96.1816 50.1385 95.4185 50.196 94.4246L50.9322 81.635C51.4873 71.9949 54.7192 62.9392 60.2799 55.4465C61.2379 54.1545 62.9694 53.8814 64.222 54.8232C65.3917 55.7044 65.8213 57.3743 65.2421 58.7944L61.6688 67.5586C61.1344 68.8704 61.4136 70.344 62.3809 71.313C63.3482 72.282 64.7123 72.4548 65.856 71.7532C72.2511 67.8267 76.6327 60.7251 77.578 52.7564L80.2087 30.5669C80.3363 29.4924 81.178 28.6816 82.166 28.6816C83.2549 28.6816 84.1401 29.6528 84.1401 30.8459V59.5789C84.1401 66.5859 81.8988 73.4209 77.8292 78.824L67.0658 93.1128C66.4639 93.9111 66.5668 95.0933 67.295 95.7524C68.0238 96.4124 69.1013 96.2988 69.7025 95.5005L80.4659 81.2117C85.0413 75.1384 87.5604 67.4553 87.5604 59.5781V30.8459C87.5604 27.5845 85.1408 24.9316 82.166 24.9316Z" fill="black"/>
<path d="M64.3022 27.2747C63.8526 27.2747 63.411 27.4753 63.0931 27.824C62.7751 28.1726 62.592 28.6567 62.592 29.1511C62.592 29.6448 62.7751 30.1267 63.0931 30.4768C63.411 30.8262 63.8526 31.0247 64.3022 31.0247C64.7518 31.0247 65.1934 30.8262 65.5113 30.4768C65.8293 30.1267 66.0124 29.6448 66.0124 29.1511C66.0124 28.6567 65.8293 28.1748 65.5113 27.824C65.1934 27.4753 64.7518 27.2747 64.3022 27.2747Z" fill="black"/>
<path d="M66.0124 41.0333V35.713C66.0124 34.6773 65.2468 33.838 64.3022 33.838C63.3576 33.838 62.592 34.6773 62.592 35.713V39.9515L45.4904 50.7767V29.1255L62.592 18.3004V22.3067C62.592 23.3423 63.3576 24.1817 64.3022 24.1817C65.2468 24.1817 66.0124 23.3423 66.0124 22.3067V15.0528C66.0124 14.3826 65.6864 13.7637 65.1573 13.429L44.6353 0.438782C44.1062 0.104065 43.4542 0.104065 42.9252 0.438782L22.4032 13.429C21.8741 13.7637 21.5481 14.3826 21.5481 15.0528V41.0333C21.5481 41.7034 21.8741 42.3223 22.4032 42.657L42.9252 55.648C43.1897 55.815 43.485 55.8992 43.7802 55.8992C44.0755 55.8992 44.3708 55.815 44.6353 55.648L65.1573 42.657C65.6864 42.3223 66.0124 41.7034 66.0124 41.0333ZM43.7802 4.2276L60.8819 15.0528L43.7802 25.878L26.6786 15.0528L43.7802 4.2276ZM24.9684 18.3004L42.0701 29.1255V50.7767L24.9684 39.9515V18.3004Z" fill="black"/>
</g>
<defs>
<clipPath id="clip0">
<rect width="87.5604" height="96" fill="white"/>
</clipPath>
</defs>
</svg>
